<!-- Generated by IcoMoon.io -->
<svg version="1.1" xmlns="http://www.w3.org/2000/svg" width="512" height="512" viewBox="0 0 512 512">
<title></title>
<g id="icomoon-ignore">
</g>
<path d="M208 480h80c26.467 0 48-21.533 48-48 0-8.552-2.247-16.588-6.184-23.549 13.332-8.538 22.184-23.479 22.184-40.451 0-12.282-4.638-23.502-12.252-32 7.614-8.498 12.252-19.718 12.252-32 0-5.607-0.967-10.993-2.742-16h114.742c26.467 0 48-21.533 48-48s-21.533-48-48-48h-197.338l46.918-88.009c4.2-7.268 6.42-15.563 6.42-23.991 0-26.467-21.533-48-48-48-13.184 0-25.477 5.236-34.613 14.745-0.119 0.124-0.235 0.248-0.35 0.375l-109.037 119.585v-22.705c0-8.836-7.163-16-16-16h-96c-8.837 0-16 7.164-16 16v320c0 8.837 7.163 16 16 16h96c8.837 0 16-7.163 16-16v-22.111l72.845 36.422c2.222 1.111 4.671 1.689 7.155 1.689zM80 448c-8.837 0-16-7.163-16-16s7.163-16 16-16 16 7.163 16 16-7.163 16-16 16zM211.778 448l-83.778-41.889v-191.912l132.584-145.409c3.033-3.090 7.081-4.79 11.416-4.79 8.822 0 16 7.178 16 16 0 2.73-0.654 5.306-1.947 7.662-0.162 0.265-0.316 0.535-0.463 0.811l-59.709 112c-2.644 4.96-2.493 10.942 0.4 15.76 2.892 4.819 8.099 7.767 13.719 7.767h224c8.822 0 16 7.178 16 16s-7.178 16-16 16h-160c-8.836 0-16 7.163-16 16s7.164 16 16 16c8.822 0 16 7.178 16 16s-7.178 16-16 16c-8.837 0-16 7.163-16 16s7.163 16 16 16c8.822 0 16 7.178 16 16s-7.178 16-16 16h-16c-8.837 0-16 7.163-16 16s7.163 16 16 16c8.822 0 16 7.178 16 16s-7.178 16-16 16h-76.222z"></path>
</svg>
